<svg id="Layer_1" data-name="Layer 1" xmlns="http://www.w3.org/2000/svg" xmlns:xlink="http://www.w3.org/1999/xlink" viewBox="0 0 489.08 220.79"><defs><style>.cls-1,.cls-4,.cls-5{fill:none;}.cls-2{clip-path:url(#clip-path);}.cls-3{fill:#e52625;}.cls-4,.cls-5{stroke:#fff;stroke-miterlimit:10;}.cls-4{stroke-width:3px;}.cls-5{stroke-width:5px;}.cls-6{fill:#58595b;}</style><clipPath id="clip-path"><rect class="cls-1" x="-42.29" y="-153.36" width="566.93" height="566.93"/></clipPath></defs><g class="cls-2"><path class="cls-3" d="M215.25,66.3H92.41a19.29,19.29,0,0,0,18.16,25.77h99.49Z"/><path class="cls-4" d="M215.25,66.3H92.41a19.29,19.29,0,0,0,18.16,25.77h99.49Z"/><path class="cls-3" d="M198.62,92.06H75.78A19.29,19.29,0,0,0,94,117.83h99.49Z"/><path class="cls-4" d="M198.62,92.06H75.78A19.29,19.29,0,0,0,94,117.83h99.49Z"/><path class="cls-3" d="M200.62,117.83H77.78A19.28,19.28,0,0,0,96,143.59h99.49Z"/><path class="cls-4" d="M200.62,117.83H77.78A19.28,19.28,0,0,0,96,143.59h99.49Z"/><path class="cls-3" d="M130.44,152.55s10.36,4.82,29.42,3.73c15.5-.88,23.9-9.69,28-29.79L200.2,65.3H174.8a24.28,24.28,0,0,1-23.45-30.59h74.7c7.25,0,14.4,8.74,12.52,18.1l-16.45,81.9c-5.94,29.68-25.12,51.15-60.74,51.15-10.22,0-18.88-2.15-24.92-7.57-6.39-5.73-10.55-14-6-25.74"/><path class="cls-5" d="M130.44,152.55s10.36,4.82,29.42,3.73c15.5-.88,23.9-9.69,28-29.79L200.2,65.3H174.8a24.28,24.28,0,0,1-23.45-30.59h74.7c7.25,0,14.4,8.74,12.52,18.1l-16.45,81.9c-5.94,29.68-25.12,51.15-60.74,51.15-10.22,0-18.88-2.15-24.92-7.57C130.07,172.56,125.91,164.32,130.44,152.55Z"/><path class="cls-3" d="M242.42,49.94A16.7,16.7,0,0,1,258.8,36.51h20.59c23.1,0,39.54,7.7,39.54,26.24,0,12.25-8.75,22.83-24.49,27.73l-.35.7c12.94,3.14,19.24,10.14,19.24,20.64,0,27.29-23.44,37.79-50,37.79H222.36Zm23,78.32c14,0,21-5.94,21-15.39,0-8.4-4.9-12.6-15.39-12.6H260.15l-5.6,28Zm6-46.88c13.64,0,18.89-5.6,18.89-14.35,0-6.29-4.9-9.79-15.39-9.79h-6L264,81.38Z"/><path class="cls-3" d="M331.19,49.94a16.7,16.7,0,0,1,16.38-13.43h20.59c23.1,0,39.54,7.7,39.54,26.24,0,12.25-8.75,22.83-24.49,27.73l-.35.7c12.94,3.14,19.24,10.14,19.24,20.64,0,27.29-23.44,37.79-50,37.79H311.13Zm23,78.32c14,0,21-5.94,21-15.39,0-8.4-4.9-12.6-15.4-12.6H348.92l-5.6,28Zm5.94-46.88c13.65,0,18.9-5.6,18.9-14.35,0-6.29-4.9-9.79-15.4-9.79h-5.94l-4.9,24.14Z"/></g><path class="cls-6" d="M219.07,176.61a10.5,10.5,0,0,1-.62,2,5,5,0,0,1-1,1.56,4.17,4.17,0,0,1-1.52,1,5.54,5.54,0,0,1-2.09.36,7.69,7.69,0,0,1-1.21-.1,3.66,3.66,0,0,1-.95-.26,1.19,1.19,0,0,1-.48-.3.68.68,0,0,1-.1-.4,2.92,2.92,0,0,1,0-.34,3.9,3.9,0,0,1,.08-.52c0-.19.08-.38.13-.59a3.57,3.57,0,0,1,.17-.55,1.74,1.74,0,0,1,.2-.41c.07-.1.14-.16.22-.16a.56.56,0,0,1,.31.09l.32.18a2.5,2.5,0,0,0,.43.19,2,2,0,0,0,.65.09,1.92,1.92,0,0,0,.71-.12,1.42,1.42,0,0,0,.54-.36,2.38,2.38,0,0,0,.39-.65,4.69,4.69,0,0,0,.27-1L218,164.18a.45.45,0,0,1,.13-.23.73.73,0,0,1,.33-.17,2.56,2.56,0,0,1,.57-.1,7.27,7.27,0,0,1,.87,0c.34,0,.61,0,.84,0a2.62,2.62,0,0,1,.52.09.64.64,0,0,1,.28.17.31.31,0,0,1,0,.25Z"/><path class="cls-6" d="M233.58,180.83c0,.19-.18.32-.42.4a3.88,3.88,0,0,1-1.2.13,6.47,6.47,0,0,1-.69,0,1.88,1.88,0,0,1-.43-.09.33.33,0,0,1-.21-.16.41.41,0,0,1,0-.25l.38-1.94a3.45,3.45,0,0,1-.65.91,5.45,5.45,0,0,1-1.06.88,6,6,0,0,1-1.35.65,4.62,4.62,0,0,1-1.52.26,3.88,3.88,0,0,1-1.81-.38,3.18,3.18,0,0,1-1.15-1,4.41,4.41,0,0,1-.62-1.47,8.12,8.12,0,0,1-.18-1.73,12.88,12.88,0,0,1,.16-1.87,12.34,12.34,0,0,1,.51-2,10.82,10.82,0,0,1,.86-1.94,7.4,7.4,0,0,1,1.27-1.64,5.67,5.67,0,0,1,1.7-1.15,5.14,5.14,0,0,1,2.16-.43,4.12,4.12,0,0,1,2,.47,4.55,4.55,0,0,1,1.52,1.36l.22-1.07a.58.58,0,0,1,.43-.41,4.31,4.31,0,0,1,1.2-.12,4.36,4.36,0,0,1,.68,0,1.67,1.67,0,0,1,.42.09.37.37,0,0,1,.21.16.33.33,0,0,1,0,.24Zm-1.68-8.49a3.68,3.68,0,0,0-1.05-1.12,2.39,2.39,0,0,0-1.34-.38,2,2,0,0,0-1,.28,2.88,2.88,0,0,0-.84.72,4.92,4.92,0,0,0-.65,1,10.18,10.18,0,0,0-.46,1.24,9.82,9.82,0,0,0-.27,1.31,8.86,8.86,0,0,0-.09,1.21,3.8,3.8,0,0,0,.07.77,1.85,1.85,0,0,0,.22.65,1.27,1.27,0,0,0,.43.46,1.31,1.31,0,0,0,.69.17,2.47,2.47,0,0,0,1.23-.36,4.77,4.77,0,0,0,1.16-1,6.94,6.94,0,0,0,1-1.44,7.23,7.23,0,0,0,.6-1.75Z"/><path class="cls-6" d="M250.92,172.55a12,12,0,0,1-.17,1.9,11.25,11.25,0,0,1-.5,2,10.2,10.2,0,0,1-.87,1.94,7,7,0,0,1-1.26,1.63,5.94,5.94,0,0,1-1.7,1.13,5.29,5.29,0,0,1-2.15.42,4.76,4.76,0,0,1-1-.11,4.08,4.08,0,0,1-.87-.31,3.61,3.61,0,0,1-.73-.46,4.31,4.31,0,0,1-.57-.56L240,185.61a.47.47,0,0,1-.13.25.75.75,0,0,1-.31.18,2.7,2.7,0,0,1-.55.12c-.22,0-.5,0-.84,0s-.61,0-.81,0a2.15,2.15,0,0,1-.5-.12.47.47,0,0,1-.24-.18.41.41,0,0,1,0-.25L240,168.7c0-.19.17-.32.42-.41a6,6,0,0,1,1.89-.08,1.67,1.67,0,0,1,.42.09.37.37,0,0,1,.21.16.33.33,0,0,1,0,.24l-.38,2a3.53,3.53,0,0,1,.64-.93,5.45,5.45,0,0,1,1.06-.88,5.92,5.92,0,0,1,1.36-.66,4.62,4.62,0,0,1,1.52-.26,3.86,3.86,0,0,1,1.76.36,3.14,3.14,0,0,1,1.15,1,4.08,4.08,0,0,1,.64,1.47A7.94,7.94,0,0,1,250.92,172.55Zm-3.52.3a4.32,4.32,0,0,0-.07-.84,1.86,1.86,0,0,0-.24-.64,1.12,1.12,0,0,0-.44-.4,1.41,1.41,0,0,0-.64-.14,2.42,2.42,0,0,0-1.23.36,4.77,4.77,0,0,0-1.16,1,7.14,7.14,0,0,0-1,1.43,6.66,6.66,0,0,0-.6,1.76l-.38,1.85a3.64,3.64,0,0,0,1,1.11,2.42,2.42,0,0,0,1.34.38,2,2,0,0,0,1-.27,3.2,3.2,0,0,0,.84-.73,4.55,4.55,0,0,0,.65-1,7.45,7.45,0,0,0,.46-1.25,8.49,8.49,0,0,0,.28-1.31A11,11,0,0,0,247.4,172.85Z"/><path class="cls-6" d="M264,180.83a.55.55,0,0,1-.43.4,3.88,3.88,0,0,1-1.2.13,6.13,6.13,0,0,1-.68,0,1.88,1.88,0,0,1-.43-.09.33.33,0,0,1-.21-.16.41.41,0,0,1,0-.25l.38-1.94a3.7,3.7,0,0,1-.65.91,5.45,5.45,0,0,1-1.06.88,6.48,6.48,0,0,1-1.35.65,4.64,4.64,0,0,1-1.53.26,3.87,3.87,0,0,1-1.8-.38,3.18,3.18,0,0,1-1.15-1,4.21,4.21,0,0,1-.62-1.47,8.12,8.12,0,0,1-.18-1.73,11.61,11.61,0,0,1,.16-1.87,13.42,13.42,0,0,1,.5-2,11.62,11.62,0,0,1,.87-1.94,6.85,6.85,0,0,1,1.27-1.64,5.75,5.75,0,0,1,1.69-1.15,5.19,5.19,0,0,1,2.17-.43,4.15,4.15,0,0,1,2,.47,4.55,4.55,0,0,1,1.52,1.36l.22-1.07c0-.19.17-.32.42-.41a6,6,0,0,1,1.88-.08,1.77,1.77,0,0,1,.43.09.45.45,0,0,1,.21.16.38.38,0,0,1,0,.24Zm-1.68-8.49a3.68,3.68,0,0,0-1-1.12,2.42,2.42,0,0,0-1.34-.38,2,2,0,0,0-1,.28,3,3,0,0,0-.85.72,5.33,5.33,0,0,0-.64,1,7.68,7.68,0,0,0-.46,1.24,9.82,9.82,0,0,0-.27,1.31,8.86,8.86,0,0,0-.09,1.21,4.72,4.72,0,0,0,.06.77,2.07,2.07,0,0,0,.22.65,1.21,1.21,0,0,0,1.13.63,2.41,2.41,0,0,0,1.22-.36,4.63,4.63,0,0,0,1.17-1,6.54,6.54,0,0,0,1-1.44,6.85,6.85,0,0,0,.61-1.75Z"/><path class="cls-6" d="M281,171.41a7.46,7.46,0,0,1-.06,1c0,.32-.09.65-.15,1l-1.51,7.47a.47.47,0,0,1-.13.24.7.7,0,0,1-.31.17,2.27,2.27,0,0,1-.54.1,6.54,6.54,0,0,1-.84,0,6.21,6.21,0,0,1-.82,0,1.74,1.74,0,0,1-.49-.1.42.42,0,0,1-.24-.17.33.33,0,0,1,0-.24l1.46-7.25a4.92,4.92,0,0,0,.1-.67,4.38,4.38,0,0,0,0-.59,1.82,1.82,0,0,0-.26-1,1,1,0,0,0-.87-.39,2.35,2.35,0,0,0-1.16.35,5,5,0,0,0-1.14,1,6.69,6.69,0,0,0-.95,1.41,6.44,6.44,0,0,0-.6,1.71l-1.1,5.48a.47.47,0,0,1-.13.24.7.7,0,0,1-.31.17,2.26,2.26,0,0,1-.55.1,6.57,6.57,0,0,1-.83,0,6.21,6.21,0,0,1-.82,0,1.82,1.82,0,0,1-.5-.1.42.42,0,0,1-.24-.17.38.38,0,0,1,0-.24l2.42-12.11a.55.55,0,0,1,.12-.24.69.69,0,0,1,.27-.16,2.29,2.29,0,0,1,.48-.09,4.58,4.58,0,0,1,.69,0,4.41,4.41,0,0,1,.69,0,1.58,1.58,0,0,1,.41.09.37.37,0,0,1,.2.16.38.38,0,0,1,0,.24l-.39,2a5.27,5.27,0,0,1,.76-1,5.64,5.64,0,0,1,1.09-.89,6.16,6.16,0,0,1,1.34-.65,4.78,4.78,0,0,1,1.51-.25,4,4,0,0,1,1.6.28,2.9,2.9,0,0,1,1,.75,3,3,0,0,1,.58,1.11A5.21,5.21,0,0,1,281,171.41Z"/><path class="cls-6" d="M304.46,167.3a5,5,0,0,1-.22,1.52,4.66,4.66,0,0,1-.65,1.3,5.07,5.07,0,0,1-1,1,5.18,5.18,0,0,1-1.35.73,3.78,3.78,0,0,1,1.1.38,3,3,0,0,1,.86.69,2.93,2.93,0,0,1,.55,1,4,4,0,0,1,.2,1.29,5.71,5.71,0,0,1-.73,2.72,6.37,6.37,0,0,1-1,1.26,6,6,0,0,1-1.47,1.06,8.76,8.76,0,0,1-2,.72,11.33,11.33,0,0,1-2.62.26h-4.87a1.07,1.07,0,0,1-.81-.27.92.92,0,0,1-.12-.85l3.06-15.3a1.24,1.24,0,0,1,.48-.86,1.44,1.44,0,0,1,.86-.27h4.22a12.11,12.11,0,0,1,2.42.22,5.55,5.55,0,0,1,1.71.66,2.91,2.91,0,0,1,1,1.11A3.45,3.45,0,0,1,304.46,167.3Zm-4.27,8.13a1.66,1.66,0,0,0-.64-1.37,3.41,3.41,0,0,0-2.06-.5h-2.37l-1,5h2.52a4.29,4.29,0,0,0,1.62-.27,3.27,3.27,0,0,0,1.09-.71,2.83,2.83,0,0,0,.63-1A3.42,3.42,0,0,0,300.19,175.43Zm.6-7.46a1.57,1.57,0,0,0-.14-.67,1.26,1.26,0,0,0-.41-.48,2,2,0,0,0-.68-.32,4.45,4.45,0,0,0-1.05-.1h-1.94l-.92,4.55h2a3.51,3.51,0,0,0,1.47-.27,2.81,2.81,0,0,0,.95-.72,3,3,0,0,0,.55-1A3.51,3.51,0,0,0,300.79,168Z"/><path class="cls-6" d="M318.72,171.37a3.56,3.56,0,0,1-.44,1.76,3.75,3.75,0,0,1-1.37,1.34,7.23,7.23,0,0,1-2.36.86,16.91,16.91,0,0,1-3.42.3h-1.24a4.58,4.58,0,0,0-.08.62c0,.2,0,.39,0,.56a2.21,2.21,0,0,0,.57,1.66,2.55,2.55,0,0,0,1.83.55,8.75,8.75,0,0,0,1.61-.13,11.68,11.68,0,0,0,1.24-.28c.36-.1.66-.2.89-.29a1.88,1.88,0,0,1,.52-.12.27.27,0,0,1,.23.09.55.55,0,0,1,.07.3c0,.15,0,.33,0,.53s-.07.39-.12.59a3.24,3.24,0,0,1-.19.55,1.2,1.2,0,0,1-.26.39,1.77,1.77,0,0,1-.6.33,7.69,7.69,0,0,1-1,.29,13.68,13.68,0,0,1-1.36.23,13.3,13.3,0,0,1-1.55.09,8.46,8.46,0,0,1-2.27-.27,4.14,4.14,0,0,1-1.62-.83,3.42,3.42,0,0,1-1-1.42,5.66,5.66,0,0,1-.33-2,12.45,12.45,0,0,1,.17-1.95,11.74,11.74,0,0,1,.55-2.05,10.62,10.62,0,0,1,1-1.93,7.41,7.41,0,0,1,1.44-1.62,7.1,7.1,0,0,1,2-1.12,7.2,7.2,0,0,1,2.54-.42,7,7,0,0,1,2.12.29,4.38,4.38,0,0,1,1.46.78,3.14,3.14,0,0,1,.85,1.09A3.2,3.2,0,0,1,318.72,171.37Zm-3.35.26a1.15,1.15,0,0,0-.43-.9,1.89,1.89,0,0,0-1.24-.36,3,3,0,0,0-1.22.24,3.46,3.46,0,0,0-.94.66,4.22,4.22,0,0,0-.7,1,5.74,5.74,0,0,0-.46,1.2h1.13a10.2,10.2,0,0,0,1.82-.14,4.4,4.4,0,0,0,1.18-.39,1.62,1.62,0,0,0,.65-.58A1.31,1.31,0,0,0,315.37,171.63Z"/><path class="cls-6" d="M330.26,169.24a4.21,4.21,0,0,1-.05.49,5.27,5.27,0,0,1-.14.64,3,3,0,0,1-.23.56c-.08.16-.18.24-.29.24a.87.87,0,0,1-.41-.13c-.16-.08-.35-.18-.58-.28a4.25,4.25,0,0,0-.79-.28,4.21,4.21,0,0,0-1.07-.12,2.75,2.75,0,0,0-.84.12,1.74,1.74,0,0,0-.62.33,1.47,1.47,0,0,0-.5,1.11.87.87,0,0,0,.34.7,4.55,4.55,0,0,0,.86.54l1.12.52a5.51,5.51,0,0,1,1.11.68,3.39,3.39,0,0,1,.85,1,2.84,2.84,0,0,1,.34,1.46,4.63,4.63,0,0,1-.39,1.91,4.11,4.11,0,0,1-1.15,1.51,5.37,5.37,0,0,1-1.83,1,7.66,7.66,0,0,1-2.43.36,7,7,0,0,1-1.24-.1,8.09,8.09,0,0,1-1.06-.23,4.05,4.05,0,0,1-.8-.31,2.78,2.78,0,0,1-.48-.33.51.51,0,0,1-.16-.23.87.87,0,0,1-.05-.31c0-.08,0-.18,0-.31s0-.27.07-.42.07-.31.11-.46a3,3,0,0,1,.14-.42,1.7,1.7,0,0,1,.18-.31.27.27,0,0,1,.2-.11.72.72,0,0,1,.42.16,6.75,6.75,0,0,0,.6.36,4.94,4.94,0,0,0,.9.36,4.28,4.28,0,0,0,1.34.17,3.52,3.52,0,0,0,1-.12,2.09,2.09,0,0,0,.68-.36,1.43,1.43,0,0,0,.4-.53,1.53,1.53,0,0,0,.13-.64,1,1,0,0,0-.33-.77,3.72,3.72,0,0,0-.84-.56c-.33-.17-.69-.35-1.09-.53a5.76,5.76,0,0,1-1.09-.66,3.43,3.43,0,0,1-.83-1,3,3,0,0,1-.34-1.46,4.41,4.41,0,0,1,.37-1.79,4.12,4.12,0,0,1,1.07-1.45,5.07,5.07,0,0,1,1.71-1,7,7,0,0,1,2.28-.35A8.05,8.05,0,0,1,328,168a7.77,7.77,0,0,1,1,.19,6.18,6.18,0,0,1,.74.27,1.4,1.4,0,0,1,.46.3A.61.61,0,0,1,330.26,169.24Z"/><path class="cls-6" d="M341,168.84a2.25,2.25,0,0,1,0,.34c0,.14-.05.3-.08.46a3.24,3.24,0,0,1-.13.49,2.53,2.53,0,0,1-.18.44,1.14,1.14,0,0,1-.23.32.38.38,0,0,1-.28.13H337.4l-1.14,5.68c0,.14-.05.3-.08.48a4.54,4.54,0,0,0,0,.46,1.06,1.06,0,0,0,.26.79,1.11,1.11,0,0,0,.81.25,3.06,3.06,0,0,0,.56,0l.4-.11.29-.11a.68.68,0,0,1,.23,0,.24.24,0,0,1,.18.1.58.58,0,0,1,.08.34,3.26,3.26,0,0,1-.06.58,4.13,4.13,0,0,1-.14.63,4.08,4.08,0,0,1-.2.56,1.24,1.24,0,0,1-.23.37,1.18,1.18,0,0,1-.36.23,3.59,3.59,0,0,1-.58.19,6.93,6.93,0,0,1-.71.13,6.47,6.47,0,0,1-.76.05,5.55,5.55,0,0,1-1.43-.17,2.64,2.64,0,0,1-1-.54,2.23,2.23,0,0,1-.63-.94,4,4,0,0,1-.21-1.38c0-.1,0-.21,0-.34s0-.27.05-.42.05-.29.07-.44.05-.28.07-.4L334,171h-1.46a.3.3,0,0,1-.26-.11.92.92,0,0,1-.08-.45,3.77,3.77,0,0,1,.05-.6,4.5,4.5,0,0,1,.15-.73,2.09,2.09,0,0,1,.29-.62.52.52,0,0,1,.42-.26h1.45l.54-2.69a.47.47,0,0,1,.13-.25.82.82,0,0,1,.31-.18,2.21,2.21,0,0,1,.55-.11c.22,0,.49,0,.83,0s.6,0,.81,0a1.62,1.62,0,0,1,.5.11.47.47,0,0,1,.24.18.4.4,0,0,1,0,.25l-.55,2.69h2.62a.31.31,0,0,1,.31.15A.89.89,0,0,1,341,168.84Z"/><path class="cls-6" d="M362.92,167.3a5,5,0,0,1-.22,1.52,4.66,4.66,0,0,1-.65,1.3,5.07,5.07,0,0,1-1,1,5.18,5.18,0,0,1-1.35.73,3.68,3.68,0,0,1,1.1.38,3,3,0,0,1,.86.69,2.93,2.93,0,0,1,.55,1,4,4,0,0,1,.2,1.29,5.71,5.71,0,0,1-.73,2.72,6.37,6.37,0,0,1-1,1.26,6,6,0,0,1-1.47,1.06,8.76,8.76,0,0,1-2,.72,11.33,11.33,0,0,1-2.62.26h-4.87a1.07,1.07,0,0,1-.81-.27.92.92,0,0,1-.12-.85l3.06-15.3a1.24,1.24,0,0,1,.48-.86,1.44,1.44,0,0,1,.86-.27h4.22a12.11,12.11,0,0,1,2.42.22,5.55,5.55,0,0,1,1.71.66,2.91,2.91,0,0,1,1,1.11A3.45,3.45,0,0,1,362.92,167.3Zm-4.27,8.13a1.63,1.63,0,0,0-.64-1.37,3.41,3.41,0,0,0-2.06-.5h-2.37l-1,5h2.52a4.29,4.29,0,0,0,1.62-.27,3.27,3.27,0,0,0,1.09-.71,2.83,2.83,0,0,0,.63-1A3.42,3.42,0,0,0,358.65,175.43Zm.6-7.46a1.57,1.57,0,0,0-.14-.67,1.18,1.18,0,0,0-.41-.48,2,2,0,0,0-.68-.32,4.45,4.45,0,0,0-1-.1H355l-.92,4.55h2a3.51,3.51,0,0,0,1.47-.27,2.81,2.81,0,0,0,.95-.72,3,3,0,0,0,.55-1A3.51,3.51,0,0,0,359.25,168Z"/><path class="cls-6" d="M375.77,180.83a.46.46,0,0,1-.12.23.6.6,0,0,1-.27.17,2.31,2.31,0,0,1-.47.09,4.64,4.64,0,0,1-.7,0,4.41,4.41,0,0,1-.69,0,1.58,1.58,0,0,1-.41-.09.35.35,0,0,1-.2-.17.35.35,0,0,1,0-.23l.37-2a4.49,4.49,0,0,1-.75,1,6.45,6.45,0,0,1-1.09.88,5.63,5.63,0,0,1-1.33.64,4.42,4.42,0,0,1-1.48.25,4.23,4.23,0,0,1-1.61-.27,2.63,2.63,0,0,1-1.06-.72,2.78,2.78,0,0,1-.58-1.09,5,5,0,0,1-.18-1.38,7.82,7.82,0,0,1,.06-.95c0-.32.09-.64.15-1l1.5-7.5a.46.46,0,0,1,.12-.24.87.87,0,0,1,.32-.16,3,3,0,0,1,.55-.09,6.4,6.4,0,0,1,.82,0,6.11,6.11,0,0,1,.82,0,2.26,2.26,0,0,1,.5.09.46.46,0,0,1,.24.16.33.33,0,0,1,0,.24L368.86,176a5.93,5.93,0,0,0-.1.63c0,.21,0,.42,0,.62a2.68,2.68,0,0,0,.06.59,1.16,1.16,0,0,0,.19.45.82.82,0,0,0,.35.29,1.29,1.29,0,0,0,.51.09,2.27,2.27,0,0,0,1.16-.36,4.71,4.71,0,0,0,1.14-1,6.5,6.5,0,0,0,1-1.49,7.86,7.86,0,0,0,.65-1.86l1-5.24a.39.39,0,0,1,.12-.24.87.87,0,0,1,.32-.16,3,3,0,0,1,.55-.09,6.57,6.57,0,0,1,.83,0,6.3,6.3,0,0,1,.82,0,2.38,2.38,0,0,1,.5.09.46.46,0,0,1,.24.16.38.38,0,0,1,0,.24Z"/><path class="cls-6" d="M392.72,168.67a3.18,3.18,0,0,1,0,.4q0,.21-.12.45c-.31.83-.64,1.69-1,2.57s-.77,1.8-1.23,2.74-1,1.91-1.57,2.92-1.26,2-2,3.12l-3.31,4.69a1,1,0,0,1-.31.29,1.52,1.52,0,0,1-.46.19,4.55,4.55,0,0,1-.67.12c-.26,0-.57,0-.91,0a7.69,7.69,0,0,1-.94,0,1.14,1.14,0,0,1-.52-.16.28.28,0,0,1-.15-.27.77.77,0,0,1,.19-.39l3.08-4.06-2-11.63c0-.12,0-.24-.05-.37a2.11,2.11,0,0,1,0-.32.76.76,0,0,1,.09-.4.6.6,0,0,1,.3-.23,2.21,2.21,0,0,1,.56-.11,7,7,0,0,1,.85,0l.88,0a2.05,2.05,0,0,1,.48.09.4.4,0,0,1,.22.2,1.05,1.05,0,0,1,.09.34l1.25,8.48h0c.45-.68.86-1.36,1.23-2.06s.71-1.4,1-2.12.59-1.45.85-2.19.49-1.48.71-2.23a.55.55,0,0,1,.12-.24.73.73,0,0,1,.32-.16,3.53,3.53,0,0,1,.59-.09,8.2,8.2,0,0,1,.95,0,4.37,4.37,0,0,1,1.19.11A.4.4,0,0,1,392.72,168.67Z"/></svg>